PathFileType	4	(X/Y/Z)	C:\Users\WrightLab\Desktop\Jo\P3_24.trc
DataRate	CameraRate	NumFrames	NumMarkers	Units	OrigDataRate	OrigDataStartFrame	OrigNumFrames
100.00	100.00	       44	19	mm	100.00	533	       609
Frame#	Time	Headset_Front			Headset_Back			Headset_Left			Headset_Right			Left_Shoulder			Right_Shoulder			Sternum			C7			Left Elbow			Right Elbow			Left Wrist			Right Wrist			Left ASIS			Right ASIS			S2			Left Knee			Right Knee			Left Ankle			Right Ankle			
		X1	Y1	Z1	X2	Y2	Z2	X3	Y3	Z3	X4	Y4	Z4	X5	Y5	Z5	X6	Y6	Z6	X7	Y7	Z7	X8	Y8	Z8	X9	Y9	Z9	X10	Y10	Z10	X11	Y11	Z11	X12	Y12	Z12	X13	Y13	Z13	X14	Y14	Z14	X15	Y15	Z15	X16	Y16	Z16	X17	Y17	Z17	X18	Y18	Z18	X19	Y19	Z19	

533	5.320																												-532.86414	966.39832	-1368.01819																			-377.14459	420.45935	-1407.68542				-445.79572	93.77908	-1360.05322	
534	5.330																												-538.29663	966.35315	-1380.25439																			-379.40097	423.54468	-1409.24792				-448.44717	93.83390	-1363.98743	
535	5.340																												-544.96771	967.83173	-1382.42236																			-381.29074	424.72525	-1410.38831				-451.76764	94.60365	-1369.65491	
536	5.350																												-549.60376	968.60571	-1390.28137																			-386.72943	425.00845	-1415.40686				-453.19269	95.96522	-1370.98828	
537	5.360																												-553.95502	970.38367	-1397.74939																			-388.00375	426.08551	-1415.75623				-457.62521	94.04423	-1380.69922	
538	5.370																												-560.97833	973.66138	-1397.63293																			-394.02405	426.26443	-1419.52087				-459.52731	97.05646	-1379.78271	
539	5.380																												-565.31793	970.02563	-1416.20459																			-399.11432	425.46106	-1422.19385				-462.82407	97.62898	-1386.39856	
540	5.390																												-570.72223	972.26306	-1419.58020																			-403.88831	426.76187	-1427.60999				-467.07208	96.11258	-1394.21289	
541	5.400																												-574.19385	972.39948	-1427.73657																			-409.53333	426.55484	-1431.26721				-471.07932	95.03722	-1398.34424	
542	5.410																												-579.41644	973.62177	-1435.78210																			-416.01874	426.80133	-1435.03528				-473.98395	95.41705	-1401.45239	
543	5.420																												-583.59442	974.91321	-1443.60962																			-421.25656	426.37265	-1440.35657				-478.23773	94.34917	-1409.51904	
544	5.430																												-588.26111	975.76935	-1445.63586																			-428.11432	425.48526	-1445.66101				-481.17236	93.49440	-1414.36279	
545	5.440																												-592.11536	975.20575	-1458.21362																			-433.87341	426.99039	-1448.35559				-484.72885	94.82325	-1422.84277	
546	5.450																												-595.93762	975.52722	-1463.31458																			-440.02753	426.02393	-1453.22949				-489.02161	92.32027	-1431.70752	
547	5.460																												-598.95129	978.77881	-1461.99902																			-445.58389	425.50900	-1457.56165				-491.08780	93.59032	-1436.75769	
548	5.470																												-603.54944	976.24603	-1479.45874																			-452.34109	424.05661	-1466.06592				-495.49738	91.70251	-1445.62207	
549	5.480																												-606.12354	977.95953	-1484.11743																			-456.98193	422.10837	-1482.45679				-499.34302	89.73901	-1455.34436	
550	5.490																												-608.83496	979.58606	-1484.61743																			-463.51111	421.76450	-1485.29626				-504.01437	87.97350	-1468.76282	
551	5.500																												-612.36395	977.17700	-1500.66138																			-467.79758	422.85684	-1485.96521				-508.95200	90.43782	-1472.54944	
552	5.510																												-613.41803	980.13953	-1500.99072																			-472.93811	419.86606	-1495.47595				-514.49286	87.96971	-1483.77686	
553	5.520																												-616.43750	980.00824	-1507.20911																			-479.21768	419.58588	-1502.21021				-517.94073	87.64120	-1492.46997	
554	5.530																												-620.09210	977.01147	-1521.93408																			-484.13547	420.14957	-1500.63538				-523.18805	87.91420	-1501.33154	
555	5.540																												-621.18488	980.75494	-1522.40149																			-488.81586	418.60864	-1508.97278				-527.67017	86.50887	-1513.57825	
556	5.550																												-622.89752	980.70526	-1529.22583																			-494.89136	419.08371	-1517.42554				-532.79340	81.77245	-1534.10510	
557	5.560																												-625.24048	980.43561	-1535.69971																			-498.61783	419.13907	-1523.17053				-536.87439	86.18192	-1538.85156	
558	5.570																												-627.09467	980.66022	-1542.78320																			-503.41586	419.16989	-1526.13330				-541.37512	86.76208	-1548.87817	
559	5.580																												-628.72437	980.78674	-1549.94556																			-507.66153	417.03635	-1536.27173				-545.51239	85.23274	-1560.88660	
560	5.590																												-630.96667	981.12018	-1557.41589																			-511.48105	419.03445	-1533.83630				-550.47247	87.47507	-1570.11633	
561	5.600																												-632.90283	980.21344	-1562.44153																			-515.39764	415.81900	-1544.85376				-553.05145	82.83637	-1593.18872	
562	5.610																												-635.15167	979.64075	-1568.30090																			-518.98529	417.29926	-1541.71533				-557.66614	84.45394	-1602.28638	
563	5.620																												-636.99036	980.10864	-1576.21094																			-522.37000	413.84195	-1553.31824				-560.70508	85.19673	-1617.22852	
564	5.630																												-638.35370	980.45166	-1583.96643																			-525.31836	414.67923	-1554.49146				-563.62109	85.48607	-1627.96204	
565	5.640																												-639.75061	979.95111	-1590.85193																			-529.49854	413.79263	-1557.51843				-566.12177	85.80576	-1643.18225	
566	5.650																												-641.22687	978.88141	-1596.39954																			-531.83258	412.82803	-1564.27612				-568.24689	86.39899	-1652.99280	
567	5.660																												-642.73236	978.36658	-1602.32471																			-534.21021	412.61282	-1565.97205				-570.06104	88.23051	-1666.58252	
568	5.670																												-644.35388	977.76080	-1607.90295																			-538.27765	411.41678	-1573.75867				-570.87183	88.91312	-1677.17212	
569	5.680																												-645.70410	978.04358	-1615.48218																			-540.30548	412.10593	-1573.74622				-572.05188	91.89845	-1687.93506	
570	5.690																												-646.82568	978.03406	-1621.91675																			-543.20288	409.54800	-1583.93567				-571.76294	91.30842	-1698.81128	
571	5.700																												-647.85254	977.18054	-1626.67053																			-546.19128	408.80487	-1584.90698				-571.47308	90.87341	-1709.75574	
572	5.710																												-648.90247	976.21124	-1631.34302																			-548.11938	409.24756	-1586.70703				-571.73187	92.04682	-1717.79529	
573	5.720																												-650.71942	975.66583	-1636.38855																			-551.54938	407.59692	-1595.48352				-572.10883	92.26040	-1724.41675	
574	5.730																												-650.28510	977.65393	-1646.82434																			-552.52991	406.46848	-1600.00806				-570.95111	90.83249	-1733.31689	
575	5.740																												-651.01270	977.33868	-1652.29199																			-553.35913	405.36429	-1603.79883				-570.91534	90.14281	-1737.48572	
576	5.750																												-651.76093	977.02435	-1657.74304																			-555.11389	404.54929	-1612.31030				-570.73340	88.80019	-1740.82141	
